<?xml version="1.0" encoding="utf-8"?>
<!-- Generator: Adobe Illustrator 26.3.1, SVG Export Plug-In . SVG Version: 6.00 Build 0)  -->
<svg version="1.1" id="Layer_1" xmlns="http://www.w3.org/2000/svg" xmlns:xlink="http://www.w3.org/1999/xlink" x="0px" y="0px"
	 viewBox="0 0 576 512" style="enable-background:new 0 0 576 512;" xml:space="preserve">
<style type="text/css">
	.st0{fill:#D1932F;}
</style>
<path class="st0" d="M550.6,193.2c-3.8-11.5-13.7-19.9-25.7-21.7l-143.7-21.2L316.9,18c-5.3-11-16.5-18-28.8-18s-23.4,7-28.8,18
	L195,150.3L51.4,171.5c-12,1.8-22,10.2-25.7,21.7s-0.7,24.2,7.9,32.7L137.8,329l-24.6,145.7c-2,12,3,24.2,12.9,31.3
	c5.6,4,12.1,6,18.8,6c5.1,0,10.3-1.2,15-3.7l128.3-68.5l128.3,68.5c4.8,2.5,9.9,3.8,15.1,3.8c6.6,0,13.1-2,18.7-6.1
	c9.9-7.2,14.9-19.3,12.9-31.3L438.5,329l104.2-103.1C551.3,217.4,554.4,204.7,550.6,193.2z M401.9,292l-11.5,11.4
	c-4.8,4.8-7.1,11.6-5.9,18.4l2.7,15.9l17.9,105.6L325.9,401V155.5l8.5,17.5l7.2,14.8c3,6.2,8.9,10.5,15.8,11.6l16.2,2.4l104.1,15.4
	L401.9,292z"/>
</svg>
