<?xml version="1.0" encoding="utf-8"?>
<!-- Generator: Adobe Illustrator 26.3.1, SVG Export Plug-In . SVG Version: 6.00 Build 0)  -->
<svg version="1.1" id="Layer_1" xmlns="http://www.w3.org/2000/svg" xmlns:xlink="http://www.w3.org/1999/xlink" x="0px" y="0px"
	 viewBox="0 0 576 512" style="enable-background:new 0 0 576 512;" xml:space="preserve">
<style type="text/css">
	.st0{fill:#D1932F;}
</style>
<path class="st0" d="M542.7,225.9c8.6-8.5,11.7-21.2,7.9-32.7c-3.8-11.5-13.7-19.9-25.7-21.7l-143.7-21.2L316.9,18
	c-5.3-11-16.5-18-28.8-18s-23.4,7-28.8,18L195,150.3L51.4,171.5c-12,1.8-22,10.2-25.7,21.7s-0.7,24.2,7.9,32.7L137.8,329
	l-24.6,145.7c-2,12,3,24.2,12.9,31.3c5.6,4,12.1,6,18.8,6c5.1,0,10.3-1.2,15-3.7l128.3-68.5l128.3,68.5c4.8,2.5,9.9,3.8,15.1,3.8
	c6.6,0,13.1-2,18.7-6.1c9.9-7.2,14.9-19.3,12.9-31.3l-23.6-139.1v-0.1l-0.1-0.3l-1-6.2L542.7,225.9z M439.6,254.7v-43.3l38.1,5.6
	L439.6,254.7z"/>
</svg>
